# xmcd CD database file
#
# Track frame offsets:
#	150
#	21600
#	42200
#
# Disc length: 850 seconds
#
# Revision: 0
# Processed by: cddbd v1.5PL3 Copyright (c) Steve Scherf et al.
# Submitted via: CDex 1.50beta9
#
DISCID=21035003
DTITLE=久保田利伸 - ｔｈｅ　Ｓｏｕｎｄ　ｏｆ　Ｃａｒｎｉｖａｌ
DYEAR=1999
DGENRE=J-POP
TTITLE0=ｔｈｅ　Ｓｏｕｎｄ　ｏｆ　Ｃａｒｎｉｖａl
TTITLE1=Ｈｉｒｏｏ　Ｄｏｃｕｍｅｎｔ
TTITLE2=ｔｈｅ　Ｓｏｕｎｄ　ｏｆ　Ｃａｒｎｉｖａｌ　カラオケ
EXTD=YEAR: 1999
EXTT0=
EXTT1=
EXTT2=
PLAYORDER=
